<svg width="20" height="20" viewBox="0 0 20 20" fill="none" xmlns="http://www.w3.org/2000/svg">
<path fill-rule="evenodd" clip-rule="evenodd" d="M8.16679 12.7103C8.68718 13.0631 9.32141 13.2764 9.9963 13.2764C11.7852 13.2764 13.2406 11.8078 13.2406 10.0029C13.2406 9.32196 13.0292 8.68203 12.6796 8.15696L11.7933 9.05122C11.9396 9.33017 12.021 9.65834 12.021 10.0029C12.021 11.1269 11.1103 12.0458 9.9963 12.0458C9.65479 12.0458 9.32954 11.9637 9.05308 11.8161L8.16679 12.7103ZM15.3547 5.45777C16.5337 6.54073 17.5339 8.00108 18.2819 9.75679C18.347 9.91267 18.347 10.0932 18.2819 10.2408C16.5419 14.3265 13.4439 16.7714 9.9963 16.7714H9.98817C8.41886 16.7714 6.91459 16.2545 5.58921 15.3111L4.01177 16.9027C3.8898 17.0257 3.73531 17.0832 3.58082 17.0832C3.42633 17.0832 3.2637 17.0257 3.14987 16.9027C2.94659 16.6976 2.91406 16.3694 3.07669 16.1315L3.10108 16.0987L15.1271 3.9646C15.1433 3.94819 15.1596 3.93178 15.1677 3.91537L15.1677 3.91536C15.184 3.89896 15.2002 3.88255 15.2084 3.86614L15.9727 3.09495C16.2166 2.85702 16.5988 2.85702 16.8346 3.09495C17.0785 3.33287 17.0785 3.72667 16.8346 3.9646L15.3547 5.45777ZM6.74603 10.0061C6.74603 10.2194 6.77043 10.4327 6.80295 10.6296L3.79442 13.6652C2.98131 12.7135 2.2739 11.5649 1.71285 10.244C1.6478 10.0964 1.6478 9.91587 1.71285 9.75999C3.45292 5.67428 6.55089 3.23762 9.99036 3.23762H9.99849C11.1612 3.23762 12.2915 3.51656 13.3323 4.04163L10.6165 6.78185C10.4213 6.74903 10.2099 6.72442 9.99849 6.72442C8.20151 6.72442 6.74603 8.19298 6.74603 10.0061Z" fill="#9E9E9E"/>
</svg>
