<svg width="20" height="20" viewBox="0 0 20 20" fill="none" xmlns="http://www.w3.org/2000/svg">
<path fill-rule="evenodd" clip-rule="evenodd" d="M14.5997 6.16318V7.44096C16.035 7.88897 17.0807 9.18828 17.0807 10.7402V14.8543C17.0807 16.7755 15.4879 18.3332 13.5242 18.3332H6.47139C4.50686 18.3332 2.91406 16.7755 2.91406 14.8543V10.7402C2.91406 9.18828 3.96069 7.88897 5.39513 7.44096V6.16318C5.4036 3.67883 7.46128 1.6665 9.98469 1.6665C12.542 1.6665 14.5997 3.67883 14.5997 6.16318ZM10.0016 3.11571C11.7206 3.11571 13.1178 4.4821 13.1178 6.16318V7.26126H6.877V6.14661C6.88547 4.47382 8.28266 3.11571 10.0016 3.11571ZM10.7383 13.7123C10.7383 14.1181 10.4081 14.441 9.99316 14.441C9.58671 14.441 9.25646 14.1181 9.25646 13.7123V11.8739C9.25646 11.4764 9.58671 11.1534 9.99316 11.1534C10.4081 11.1534 10.7383 11.4764 10.7383 11.8739V13.7123Z" fill="#9E9E9E"/>
</svg>
