<svg width="200" height="200" viewBox="0 0 200 200" fill="none" xmlns="http://www.w3.org/2000/svg">
<path d="M126.829 35.7886C128.031 33.0846 131.277 30.9564 131.277 30.9564C127.246 29.9007 123.3 30.5669 121.02 31.2894C119.688 29.8499 114.342 16.4935 92.9634 18.7516C92.9634 18.7516 98.3715 21.7096 101.64 27.1177C101.64 27.1177 100.263 27.0274 99.3763 27.0499C76.2086 27.5975 56.4958 47.5983 56.2756 70.7716C56.1232 86.3635 64.0546 100.109 76.1296 108.086C78.2804 109.509 79.5675 111.919 79.5675 114.499V115.882C79.5675 119.568 82.5538 122.555 86.24 122.555H114.652C118.338 122.555 121.325 119.568 121.325 115.882V114.499C121.325 111.947 122.567 109.531 124.7 108.126C136.696 100.228 144.617 86.6458 144.617 71.2063C144.617 56.7039 137.622 43.8386 126.829 35.7886Z" fill="url(#paint0_linear_102_1163)"/>
<path style="mix-blend-mode:multiply" d="M102.013 106.748C82.368 106.748 69.5366 102.762 61.3906 91.8672C64.868 98.4269 69.9543 104.01 76.1188 108.086C78.2696 109.508 79.5567 111.919 79.5567 114.499V115.882C79.5567 119.568 82.543 122.554 86.2293 122.554H114.641C118.328 122.554 121.314 119.568 121.314 115.882V114.499C121.314 111.947 122.556 109.531 124.69 108.125C131.176 103.858 136.465 97.9245 139.96 90.9414C132.265 101.825 116.075 106.748 102.013 106.748Z" fill="url(#paint1_linear_102_1163)"/>
<path d="M121.014 78.7482C125.051 78.7482 128.324 74.3277 128.324 68.8748C128.324 63.4219 125.051 59.0015 121.014 59.0015C116.976 59.0015 113.703 63.4219 113.703 68.8748C113.703 74.3277 116.976 78.7482 121.014 78.7482Z" fill="#00042D"/>
<path d="M118.962 65.7472C120.421 65.7472 121.604 64.5644 121.604 63.1053C121.604 61.6462 120.421 60.4634 118.962 60.4634C117.503 60.4634 116.32 61.6462 116.32 63.1053C116.32 64.5644 117.503 65.7472 118.962 65.7472Z" fill="white"/>
<path d="M79.6073 78.7482C83.6448 78.7482 86.9178 74.3277 86.9178 68.8748C86.9178 63.4219 83.6448 59.0015 79.6073 59.0015C75.5699 59.0015 72.2969 63.4219 72.2969 68.8748C72.2969 74.3277 75.5699 78.7482 79.6073 78.7482Z" fill="#00042D"/>
<path d="M77.5482 65.7472C79.0073 65.7472 80.1901 64.5644 80.1901 63.1053C80.1901 61.6462 79.0073 60.4634 77.5482 60.4634C76.0891 60.4634 74.9062 61.6462 74.9062 63.1053C74.9062 64.5644 76.0891 65.7472 77.5482 65.7472Z" fill="white"/>
<path d="M116.01 130.396H84.324C82.1562 130.396 80.4062 128.64 80.4062 126.478C80.4062 124.31 82.1619 122.56 84.324 122.56H116.01C118.178 122.56 119.928 124.316 119.928 126.478C119.928 128.646 118.172 130.396 116.01 130.396Z" fill="url(#paint2_linear_102_1163)"/>
<path d="M101.89 142.138H98.9827C96.0473 142.138 93.4336 140.281 92.4626 137.509L89.9844 130.396H110.894L108.416 137.509C107.45 140.281 104.837 142.138 101.896 142.138H101.89Z" fill="url(#paint3_linear_102_1163)"/>
<path style="mix-blend-mode:multiply" d="M109.402 134.647L110.886 130.396H89.9766L91.4612 134.647H109.402Z" fill="url(#paint4_linear_102_1163)"/>
<path d="M128.027 40.2935C118.763 40.2935 110.673 45.3289 106.344 52.8087C104.921 50.8047 102.578 49.4894 99.9363 49.4894C97.2944 49.4894 95.042 50.7539 93.6081 52.7015C89.2613 45.2838 81.2114 40.2935 71.9872 40.2935C58.1566 40.2935 46.9453 51.5047 46.9453 65.3353C46.9453 79.1659 58.1566 90.3772 71.9872 90.3772C85.8178 90.3772 97.0291 79.1659 97.0291 65.3353C97.0291 62.2644 96.4702 59.3176 95.4597 56.5966C95.8153 54.4515 97.6839 52.8087 99.9307 52.8087C102.177 52.8087 104.21 54.5926 104.441 56.8789C103.493 59.5208 102.973 62.366 102.973 65.3353C102.973 79.1659 114.185 90.3772 128.015 90.3772C141.846 90.3772 153.057 79.1659 153.057 65.3353C153.057 51.5047 141.846 40.2935 128.015 40.2935H128.027ZM71.9928 87.0861C59.98 87.0861 50.2477 77.3482 50.2477 65.341C50.2477 53.3337 59.9856 43.5959 71.9928 43.5959C84.0001 43.5959 93.7379 53.3337 93.7379 65.341C93.7379 77.3482 84.0001 87.0861 71.9928 87.0861ZM128.027 87.0861C116.014 87.0861 106.281 77.3482 106.281 65.341C106.281 53.3337 116.019 43.5959 128.027 43.5959C140.034 43.5959 149.772 53.3337 149.772 65.341C149.772 77.3482 140.034 87.0861 128.027 87.0861Z" fill="white"/>
<path d="M100.954 97.5131C100.7 97.5131 100.446 97.5018 100.192 97.4849C96.7767 97.2365 93.5929 95.2437 91.8824 92.28C91.2558 91.1905 91.6284 89.8018 92.7122 89.1752C93.8017 88.5486 95.1904 88.9212 95.8171 90.005C96.7711 91.6591 98.617 92.8107 100.519 92.9518C102.292 93.0816 104.573 92.4099 105.69 90.1349C106.244 89.0059 107.61 88.5486 108.733 89.1018C109.862 89.655 110.325 91.0212 109.766 92.1446C108.129 95.4639 104.725 97.5131 100.948 97.5131H100.954Z" fill="#00042D"/>
<path d="M25.3278 168.25L17.069 158.275H12.7109V176.989H17.8988V167.02L26.152 176.989H30.5101V158.275H25.3278V168.25Z" fill="white"/>
<path d="M39.3559 169.475H47.6712V165.524H39.3559V162.368H48.7946V158.275H34.1172V176.989H49.1389V172.896H39.3559V169.475Z" fill="white"/>
<path d="M67.7969 168.849C68.4743 167.827 68.813 166.608 68.813 165.202C68.813 163.796 68.4743 162.543 67.7969 161.499C67.1195 160.454 66.1598 159.658 64.9235 159.105C63.6872 158.552 62.2082 158.275 60.4977 158.275H51.9453V176.983H57.2348V172.01H60.1251L63.5179 176.983H69.1856L65.138 171.084C66.267 170.548 67.159 169.803 67.7969 168.843V168.849ZM62.6542 163.17C63.1961 163.65 63.4671 164.327 63.4671 165.202C63.4671 166.077 63.1961 166.726 62.6542 167.206C62.1122 167.686 61.288 167.929 60.1816 167.929H57.2405V162.447H60.1816C61.288 162.447 62.1122 162.69 62.6542 163.17Z" fill="white"/>
<path d="M85.8851 159.427C84.3157 158.659 82.498 158.275 80.4319 158.275H71.5859V176.983H80.4319C82.498 176.983 84.3157 176.6 85.8851 175.832C87.4544 175.064 88.6794 173.986 89.5601 172.586C90.4407 171.186 90.881 169.532 90.881 167.629C90.881 165.727 90.4407 164.05 89.5601 162.656C88.6794 161.267 87.4544 160.189 85.8851 159.421V159.427ZM84.869 170.401C84.423 171.175 83.802 171.767 83.0117 172.162C82.2214 172.563 81.2899 172.766 80.2174 172.766H76.8754V162.504H80.2174C81.2843 162.504 82.2157 162.701 83.0117 163.102C83.802 163.503 84.423 164.09 84.869 164.852C85.3149 165.62 85.5351 166.546 85.5351 167.629C85.5351 168.713 85.3093 169.622 84.869 170.396V170.401Z" fill="white"/>
<path d="M116.836 177.734C116.446 177.734 116.074 177.655 115.729 177.491C115.379 177.333 115.029 177.062 114.674 176.69C114.674 176.69 114.663 176.678 114.657 176.673C114.691 176.661 114.73 176.65 114.764 176.639C116.017 176.159 117.113 175.482 118.038 174.607C118.964 173.732 119.692 172.704 120.217 171.519C120.742 170.333 121.008 169.04 121.008 167.629C121.008 166.218 120.742 164.925 120.217 163.74C119.692 162.554 118.964 161.527 118.038 160.652C117.113 159.777 116.023 159.099 114.764 158.62C113.505 158.14 112.122 157.897 110.609 157.897C109.096 157.897 107.73 158.14 106.466 158.62C105.201 159.099 104.1 159.782 103.163 160.663C102.226 161.544 101.504 162.571 100.984 163.751C100.465 164.925 100.211 166.218 100.211 167.629C100.211 169.04 100.471 170.328 100.984 171.507C101.504 172.682 102.226 173.715 103.163 174.595C104.1 175.476 105.201 176.159 106.466 176.639C107.132 176.893 107.838 177.074 108.571 177.198C109.215 177.858 109.808 178.428 110.355 178.914C111.078 179.557 111.772 180.065 112.438 180.438C113.104 180.811 113.788 181.082 114.482 181.251C115.176 181.42 115.927 181.505 116.729 181.505C118.919 181.505 120.669 180.72 121.967 179.151L119.67 176.424C118.812 177.299 117.869 177.734 116.836 177.734ZM105.946 169.825C105.687 169.165 105.557 168.436 105.557 167.635C105.557 166.833 105.687 166.082 105.946 165.428C106.206 164.778 106.562 164.214 107.013 163.745C107.465 163.271 108.001 162.91 108.617 162.661C109.232 162.413 109.898 162.289 110.609 162.289C111.321 162.289 111.987 162.413 112.602 162.661C113.217 162.91 113.754 163.271 114.205 163.745C114.657 164.22 115.018 164.778 115.272 165.428C115.532 166.077 115.662 166.816 115.662 167.635C115.662 168.453 115.532 169.165 115.272 169.825C115.013 170.486 114.657 171.05 114.205 171.524C113.754 171.999 113.217 172.36 112.602 172.608C111.987 172.857 111.321 172.981 110.609 172.981C109.898 172.981 109.232 172.857 108.617 172.608C108.001 172.36 107.465 171.999 107.013 171.524C106.562 171.05 106.2 170.486 105.946 169.825Z" fill="white"/>
<path d="M135.874 168.487C135.874 170.091 135.564 171.242 134.937 171.937C134.316 172.631 133.447 172.981 132.346 172.981C131.245 172.981 130.37 172.631 129.738 171.937C129.106 171.242 128.789 170.091 128.789 168.487V158.275H123.5V168.646C123.5 171.423 124.273 173.574 125.826 175.087C127.378 176.6 129.529 177.356 132.295 177.356C135.061 177.356 137.212 176.6 138.764 175.087C140.317 173.574 141.09 171.423 141.09 168.646V158.275H135.88V168.487H135.874Z" fill="white"/>
<path d="M149.821 158.275H144.531V176.983H149.821V158.275Z" fill="white"/>
<path d="M168.875 161.595V158.275H152.758V162.475H161.954L152.516 173.675V176.989H169.276V172.789H159.442L168.875 161.595Z" fill="white"/>
<path d="M177.458 172.789L186.891 161.595V158.275H170.774V162.475H179.97L170.531 173.675V176.989H187.292V172.789H177.458Z" fill="white"/>
<defs>
<linearGradient id="paint0_linear_102_1163" x1="72.0877" y1="146.885" x2="116.792" y2="27.9306" gradientUnits="userSpaceOnUse">
<stop stop-color="#5C1CB2"/>
<stop offset="0.09" stop-color="#7118B3"/>
<stop offset="0.28" stop-color="#A80EB9"/>
<stop offset="0.55" stop-color="#FF00C1"/>
<stop offset="0.62" stop-color="#FD15AD"/>
<stop offset="0.77" stop-color="#FA4C7A"/>
<stop offset="0.98" stop-color="#F4A52A"/>
<stop offset="1" stop-color="#F4AC24"/>
</linearGradient>
<linearGradient id="paint1_linear_102_1163" x1="100.675" y1="81.1471" x2="100.675" y2="144.915" gradientUnits="userSpaceOnUse">
<stop stop-color="#5CBFFC" stop-opacity="0"/>
<stop offset="0.32" stop-color="#5C81E0" stop-opacity="0.38"/>
<stop offset="0.64" stop-color="#5C4AC7" stop-opacity="0.71"/>
<stop offset="0.88" stop-color="#5C28B7" stop-opacity="0.92"/>
<stop offset="1" stop-color="#5C1CB2"/>
</linearGradient>
<linearGradient id="paint2_linear_102_1163" x1="90.7651" y1="151.503" x2="131.771" y2="42.3708" gradientUnits="userSpaceOnUse">
<stop stop-color="#5C1CB2"/>
<stop offset="0.09" stop-color="#7118B3"/>
<stop offset="0.28" stop-color="#A80EB9"/>
<stop offset="0.55" stop-color="#FF00C1"/>
<stop offset="0.62" stop-color="#FD15AD"/>
<stop offset="0.77" stop-color="#FA4C7A"/>
<stop offset="0.98" stop-color="#F4A52A"/>
<stop offset="1" stop-color="#F4AC24"/>
</linearGradient>
<linearGradient id="paint3_linear_102_1163" x1="94.5118" y1="146.423" x2="137.601" y2="31.7414" gradientUnits="userSpaceOnUse">
<stop stop-color="#5C1CB2"/>
<stop offset="0.09" stop-color="#7118B3"/>
<stop offset="0.28" stop-color="#A80EB9"/>
<stop offset="0.55" stop-color="#FF00C1"/>
<stop offset="0.62" stop-color="#FD15AD"/>
<stop offset="0.77" stop-color="#FA4C7A"/>
<stop offset="0.98" stop-color="#F4A52A"/>
<stop offset="1" stop-color="#F4AC24"/>
</linearGradient>
<linearGradient id="paint4_linear_102_1163" x1="100.313" y1="134.816" x2="100.465" y2="129.256" gradientUnits="userSpaceOnUse">
<stop stop-color="#5CBFFC" stop-opacity="0"/>
<stop offset="0.32" stop-color="#5C81E0" stop-opacity="0.38"/>
<stop offset="0.64" stop-color="#5C4AC7" stop-opacity="0.71"/>
<stop offset="0.88" stop-color="#5C28B7" stop-opacity="0.92"/>
<stop offset="1" stop-color="#5C1CB2"/>
</linearGradient>
</defs>
</svg>
