<svg width="20" height="20" viewBox="0 0 20 20" fill="none" xmlns="http://www.w3.org/2000/svg">
<path fill-rule="evenodd" clip-rule="evenodd" d="M14.1132 2.5C15.2307 2.5 16.3057 2.94167 17.0966 3.73417C17.8882 4.525 18.3307 5.59167 18.3307 6.70833V13.2917C18.3307 15.6167 16.4391 17.5 14.1132 17.5H5.88073C3.5549 17.5 1.66406 15.6167 1.66406 13.2917V6.70833C1.66406 4.38333 3.54656 2.5 5.88073 2.5H14.1132ZM15.4391 7.95L15.5057 7.88333C15.7049 7.64167 15.7049 7.29167 15.4966 7.05C15.3807 6.92583 15.2216 6.85 15.0557 6.83333C14.8807 6.82417 14.7141 6.88333 14.5882 7L10.8307 10C10.3474 10.4008 9.6549 10.4008 9.16406 10L5.41406 7C5.1549 6.80833 4.79656 6.83333 4.58073 7.05833C4.35573 7.28333 4.33073 7.64167 4.52156 7.89167L4.63073 8L8.4224 10.9583C8.88906 11.325 9.4549 11.525 10.0474 11.525C10.6382 11.525 11.2141 11.325 11.6799 10.9583L15.4391 7.95Z" fill="#9E9E9E"/>
</svg>
